<?xml version="1.0"?><svg width="744.09448819" height="1052.3622047" xmlns="http://www.w3.org/2000/svg">
 <title>owl big</title>

 <metadata id="metadata7">image/svg+xmlOwlowl silhouette night bird</metadata>
 <g>
  <title>Layer 1</title>
  <g id="layer1">
   <path fill="#000000" id="path3048" d="m145.024338,762.171143c-1.233612,-0.818909 -4.704346,-6.562622 -7.712784,-12.763855c-6.827194,-14.07251 -9.026352,-15.551025 -10.780609,-7.248047c-1.34729,6.377197 -5.794556,8.721863 -8.359558,4.407349c-0.700531,-1.178284 -4.102829,0.866394 -7.560623,4.543762c-3.457832,3.677368 -7.512398,6.197266 -9.010071,5.599731c-1.497719,-0.597412 -3.335876,-6.315735 -4.0849,-12.707153c-1.652008,-14.0979 -7.919975,-35.340576 -13.7836,-46.713928c-2.376511,-4.609619 -4.320869,-9.457642 -4.320869,-10.773499c0,-1.315857 -3.8302,-8.076721 -8.511597,-15.02417c-7.699181,-11.425964 -8.283005,-13.205261 -6.117088,-18.641174c1.888641,-4.740173 1.758141,-7.321411 -0.617714,-12.219788c-1.656662,-3.415466 -3.636559,-8.916443 -4.399635,-12.224426c-0.763153,-3.307861 -6.549286,-12.339905 -12.858078,-20.070984c-6.308811,-7.731079 -11.470524,-15.337585 -11.470524,-16.903198c0,-1.565674 -1.238213,-4.778809 -2.751537,-7.140564c-4.373322,-6.825012 -3.967213,-14.09021 0.787628,-14.09021c3.598339,0 4.057949,-1.602539 4.057949,-14.150024c0,-7.982056 0.912746,-14.150024 2.094028,-14.150024c1.151684,0 2.094017,5.482056 2.094017,12.182312c0,14.342163 5.434792,35.508789 9.537537,37.145447c4.154823,1.65741 14.995872,-7.072998 20.941696,-16.864563c6.621109,-10.903687 6.599831,-22.063599 -0.084671,-44.436279c-2.861847,-9.578491 -5.217499,-19.585327 -5.234818,-22.237396c-0.042816,-6.573212 -6.103409,-24.893921 -9.593567,-29.000702c-1.563812,-1.840118 -2.378731,-5.268768 -1.810936,-7.619202c0.646652,-2.676575 -1.730591,-8.280945 -6.361397,-14.997192c-4.066635,-5.89798 -7.384956,-11.775635 -7.374023,-13.061584c0.01086,-1.285858 2.576836,2.070343 5.702148,7.458221c8.694946,14.989746 8.894455,8.313324 0.796898,-26.667328c-1.108688,-4.789185 -1.115395,-8.163513 -0.016296,-8.163513c1.030464,0 1.873566,1.787689 1.873566,3.972565c0,2.184906 2.212822,10.756561 4.91745,19.048096c2.704651,8.291565 5.661018,18.994019 6.569672,23.783264l1.65213,8.707764l6.960312,-15.238525c4.926735,-10.786133 7.067802,-18.736786 7.328072,-27.211578l0.367729,-11.973114l1.688217,14.150055c0.952766,7.986023 0.86911,16.0466 -0.192078,18.503876c-11.287437,26.136292 -10.529472,53.686859 2.501732,90.926056c3.512886,10.038757 4.12159,15.265381 3.035736,26.06604c-1.235542,12.288513 -2.217239,14.416199 -10.860748,23.539124l-9.502434,10.029358l6.175751,13.973633c3.39666,7.685608 7.68045,17.767273 9.519501,22.403687c2.722916,6.864441 3.892418,7.956482 6.298203,5.880859c2.019699,-1.742676 3.383759,-1.826843 4.31144,-0.266479c2.347816,3.949158 4.792862,2.5 6.249573,-3.703857c0.773109,-3.292603 4.14817,-9.570129 7.500114,-13.949951c3.351929,-4.379822 7.560501,-12.216797 9.35231,-17.415405c4.21254,-12.221924 6.78273,-55.001587 3.433746,-57.153381c-3.624359,-2.328552 -2.86171,-5.633362 1.299942,-5.633362c2.030334,0 4.621719,2.204102 5.758591,4.898071c4.968338,11.772766 6.085266,7.94519 16.675095,-57.144348c5.577789,-34.283539 3.576569,-89.034302 -4.197388,-114.832886c-1.089325,-3.615051 -0.635971,-4.898102 1.730682,-4.898102c5.019699,0 5.528076,-25.046021 1.149261,-56.625702c-2.077179,-14.980499 -4.161789,-33.814575 -4.632538,-41.853516c-0.558517,-9.539459 -2.356094,-17.259705 -5.175247,-22.226944c-2.474014,-4.359161 -3.465622,-8.159302 -2.320999,-8.894699c2.743134,-1.762497 -7.903259,-15.236679 -31.610443,-40.006348c-20.761284,-21.691742 -40.394409,-46.639313 -38.364601,-48.749481c1.542648,-1.60376 -17.901566,-29.874893 -21.547722,-31.32943c-3.124939,-1.246635 -3.914291,-7.191277 -0.954849,-7.191277c3.684414,0 25.57338,26.719269 30.916191,37.738602c8.336235,17.19313 53.403709,63.527557 64.064232,65.865295c0.863724,0.189423 3.981918,0.466843 6.929138,0.616501c2.990158,0.151855 4.786636,1.234299 4.064514,2.449036c-0.711838,1.197311 -0.344254,2.176926 0.816849,2.176926c1.161072,0 4.750336,-3.665222 7.976196,-8.144958c3.22583,-4.479706 12.600723,-16.332626 20.833069,-26.339813c9.974731,-12.125183 15.715805,-21.209 17.209778,-27.230133c6.996613,-28.198013 8.666824,-37.769981 7.529648,-43.152611c-0.695984,-3.29422 -0.211121,-7.741219 1.077377,-9.88224c2.062912,-3.427628 2.189621,-3.309822 1.060684,0.985825c-2.074738,7.894234 1.13266,10.605736 5.523361,4.669464c2.112976,-2.856819 3.862778,-4.027504 3.888397,-2.601532c0.02562,1.425957 -0.822327,3.150948 -1.884293,3.833267c-2.575623,1.654816 -10.123474,26.027039 -11.707535,37.803741l-1.264236,9.398819l7.013351,-8.310379c17.275635,-20.470322 24.64151,-31.016235 24.64151,-35.279831c0,-2.527794 0.973022,-4.351074 2.162231,-4.05175c1.189224,0.299309 5.918488,-3.864037 10.509384,-9.25193l8.347122,-9.796181l-7.322266,14.911865c-7.767853,15.819283 -16.475174,29.163246 -31.758286,48.669579c-5.161377,6.587662 -11.832092,16.038574 -14.823792,21.002014c-2.991623,4.963409 -11.006485,15.759537 -17.810684,23.991364c-6.804245,8.231796 -11.935104,16.068741 -11.401886,17.415405c0.533218,1.346649 1.599228,4.074295 2.368881,6.061447c0.970673,2.506149 0.070496,4.051392 -2.938599,5.044266c-3.491104,1.151886 -3.928009,2.227554 -2.238129,5.510178c1.654633,3.21405 1.149521,4.770859 -2.382172,7.342484c-4.113373,2.995163 -4.28627,4.035309 -2.101822,12.646118c1.309082,5.16037 2.751526,17.219452 3.205399,26.798004c0.895737,18.903778 4.661392,63.22403 6.824829,80.325348c0.741928,5.865082 3.069733,12.452576 5.172775,14.638916c6.339462,6.590424 6.753891,13.38855 1.455032,23.871582c-4.628418,9.15686 -4.853836,11.725677 -4.853836,55.318298c0,44.571686 1.670364,66.396271 5.08165,66.396271c2.522522,0 25.702286,-30.283478 30.826233,-40.273163c2.456497,-4.789246 7.991867,-18.993713 12.300781,-31.56543c6.841309,-19.960236 25.504684,-63.13089 27.292557,-63.13089c0.631317,0 -0.953979,5.817749 -5.042175,18.503845c-1.899918,5.895813 -7.112885,23.841644 -15.843506,54.541962c-1.721085,6.05191 -3.742264,12.664307 -4.491531,14.694244c-0.917297,2.484955 -0.309036,3.690887 1.861526,3.690887c1.773239,0 3.822174,1.959229 4.553299,4.353851c0.731049,2.394592 2.208023,4.353821 3.282135,4.353821c1.074036,0 1.952927,1.469421 1.952927,3.265442c0,4.03006 -0.177765,4.035217 9.690918,-0.280731c8.516693,-3.72467 28.916992,-7.606354 39.43335,-7.503174c3.408173,0.033447 10.711151,2.383453 16.228729,5.222168c5.51767,2.838715 10.149902,4.331573 10.293823,3.317322c0.14389,-1.014282 0.436951,-2.578827 0.651184,-3.476776c0.214233,-0.89798 1.150665,-8.000214 2.080994,-15.782715c0.930328,-7.782532 4.527924,-22.324585 7.99469,-32.315704c5.70636,-16.445953 6.057953,-18.937836 3.713745,-26.322052c-3.095001,-9.74939 -2.639648,-10.803619 18.39798,-42.589355c12.33783,-18.641296 15.658722,-22.228821 23.111328,-24.96759c9.828613,-3.611755 10.464752,-5.07254 4.515198,-10.368378c-4.55835,-4.057404 -5.593445,-9.291046 -1.837646,-9.291046c1.623962,0 1.544647,-1.009308 -0.256378,-3.26535c-1.813446,-2.271545 -1.950745,-4.093658 -0.451294,-5.986572c1.185638,-1.496643 2.678192,-9.088684 3.316833,-16.871216c0.638702,-7.782501 1.19751,-14.499725 1.241882,-14.927124c0.044342,-0.427429 1.486664,-0.216278 3.205139,0.469299c4.523376,1.804474 9.439667,-9.425598 9.439667,-21.562531c0,-5.562439 -1.500671,-15.479874 -3.334778,-22.038818c-3.306702,-11.824829 -2.421844,-18.328995 1.501831,-11.0401c3.067932,5.699127 5.687042,4.594849 7.78772,-3.283539c1.638275,-6.143997 2.081146,-6.50206 3.365234,-2.721146c4.482788,13.199112 10.832825,25.608383 14.008331,27.375107c5.360046,2.982208 23.285645,2.440582 28.032898,-0.847046c2.27182,-1.573257 6.468048,-2.99881 9.325104,-3.167923c2.857056,-0.169144 6.259033,-1.820755 7.559998,-3.670349c3.219666,-4.577438 5.044708,-4.223175 5.044708,0.979279c0,4.030029 1.283752,4.313446 17.859192,3.942902l17.859222,-0.399261l5.597443,-12.966354c5.390686,-12.487869 5.665588,-12.753281 7.448608,-7.192856l1.851196,5.773453l6.336853,-4.690964l6.337036,-4.690994l-1.548218,7.328079c-0.851501,4.030411 -1.603943,13.483429 -1.671875,21.006607c-0.13446,14.844604 4.110168,22.224152 11.853333,20.608032c3.041809,-0.634888 3.582031,0.125305 2.532227,3.56369c-0.733887,2.4039 -0.338318,5.010712 0.878967,5.792847c1.217346,0.782166 1.645752,2.376862 0.951904,3.543945c-0.693726,1.167023 -0.458618,3.303497 0.522461,4.74762c2.11145,3.108063 2.066956,7.311707 -0.14978,14.15918c-1.007751,3.112885 -0.647034,6.220673 0.954895,8.227295c2.095825,2.625244 1.670715,4.22467 -2.28595,8.603241c-2.673401,2.95816 -4.109802,5.37851 -3.192078,5.37851c0.917664,0 0.694214,1.224518 -0.496399,2.721161c-3.267517,4.107391 -0.626526,14.694275 3.665527,14.694275c8.457764,0 17.524292,19.448242 14.59491,31.306641c-0.922546,3.734253 -2.730835,12.339539 -4.018433,19.122833c-3.416443,17.999298 -34.96405,66.500946 -62.336456,95.837067c-22.960083,24.607147 -23.581238,28.759003 -4.636444,30.987213c6.806091,0.800476 12.930237,2.389771 13.609161,3.531799c0.678894,1.141907 3.063324,2.076233 5.298828,2.076233c3.205353,0 4.064484,1.524414 4.064484,7.212036c0,5.158813 1.774231,8.979126 6.232483,13.419495c6.178467,6.153625 6.335693,6.183533 18.099365,3.446716c19.475342,-4.530884 21.54541,-4.750366 53.147278,-5.634521c35.911865,-1.004761 35.563965,-0.929321 59.67981,-12.934265c34.71936,-17.283325 43.068359,-20.24469 54.356262,-19.279541c12.4151,1.061401 15.388855,2.885498 4.704163,2.885498c-11.605652,0 -42.481323,13.253479 -59.060425,25.351807c-2.303467,1.680969 -7.624817,4.022156 -11.825378,5.20282c-11.76532,3.306763 -11.823975,7.925537 -0.168762,13.292358c29.445923,13.558838 32.0896,15.169922 36.091797,21.993774c5.436707,9.269714 5.254272,13.133545 -0.257385,5.453552c-2.475464,-3.449463 -6.303406,-5.986511 -9.032104,-5.986511c-2.604797,0 -6.404785,-1.916931 -8.444458,-4.259949c-2.039673,-2.343079 -10.114136,-6.80481 -17.94342,-9.914917c-7.829468,-3.110229 -14.757996,-7.070923 -15.39679,-8.801575c-1.369263,-3.709717 -21.518982,-4.221313 -43.173462,-1.096069c-7.486206,1.080505 -18.322754,2.585815 -24.08136,3.345337c-5.758606,0.75946 -12.749573,2.925964 -15.535583,4.814453l-5.065369,3.433594l12.430725,12.226196c6.837036,6.724243 16.59259,15.654785 21.679077,19.845215c5.086487,4.190613 12.791016,10.867065 17.121033,14.836365c9.311707,8.536316 17.227478,9.456909 27.250732,3.169373c12.234436,-7.6745 26.915955,-10.060547 43.745728,-7.109436c9.950562,1.744812 24.071411,2.083557 42.975525,1.031067c20.016479,-1.114624 28.155579,-0.874573 28.155579,0.830078c0,1.601501 -3.238403,1.936401 -9.750366,1.008545c-7.122681,-1.014954 -9.346619,-0.710388 -8.252502,1.130127c1.674011,2.81604 -7.298096,3.424866 -52.147156,3.538696c-23.614807,0.059937 -28.19281,0.661804 -34.544678,4.540894c-4.027161,2.459412 -7.572083,5.888123 -7.87738,7.619202c-0.833984,4.727417 11.750122,12.53656 27.981384,17.364136c14.320679,4.259338 25.329163,4.426025 57.851685,0.875916c8.087708,-0.882813 9.691589,-0.498657 8.735107,2.092346c-0.823364,2.230469 0.588867,3.411804 4.751648,3.974854c3.257751,0.440552 -3.499939,0.879639 -15.017151,0.975891c-13.900574,0.115967 -24.640625,1.450317 -31.947266,3.968872c-8.17157,2.816833 -11.727234,3.172729 -13.803162,1.381775c-8.768311,-7.565308 -43.905701,-14.488342 -55.667969,-10.968262c-1.907471,0.57074 -4.706116,-2.752075 -7.689087,-9.129333c-4.639221,-9.91803 -18.592407,-23.711182 -35.380554,-34.974731c-4.606873,-3.090881 -17.201477,-14.513794 -27.987976,-25.384094c-19.459259,-19.610718 -19.688812,-19.760925 -29.522186,-19.316406c-5.450684,0.246399 -12.345551,-0.906677 -15.321899,-2.562439c-2.97641,-1.655762 -7.029724,-2.364868 -9.007568,-1.575928c-3.2435,1.293945 -3.118958,1.962463 1.270813,6.820129c4.184204,4.630127 4.355713,5.385437 1.222992,5.385437c-9.454773,0 -15.579407,-10.380981 -9.719086,-16.473267c2.796448,-2.907227 0.245544,-11.826782 -3.382416,-11.826782c-1.629395,0 -3.5383,1.559753 -4.241913,3.466125c-1.012268,2.742188 -3.134644,3.17688 -10.162781,2.081238c-6.706604,-1.045532 -9.71228,-0.523132 -12.266083,2.131714c-4.022034,4.181213 -4.304382,7.90741 -0.869843,11.477905c4.134918,4.298645 -1.466797,3.102234 -6.903564,-1.474426c-4.098602,-3.450195 -4.507202,-4.891174 -2.623596,-9.251953c3.031158,-7.017456 -0.370728,-14.251892 -7.36676,-15.665771c-3.031708,-0.612671 -5.809418,-0.267883 -6.172638,0.766296c-1.946655,5.542969 -17.780182,28.650696 -26.475677,38.639099c-13.337585,15.32074 -17.614532,17.633606 -22.058289,11.92865c-2.978882,-3.824524 -3.900604,-3.997498 -7.34613,-1.378296c-6.271881,4.7677 -10.790344,3.539612 -13.682404,-3.718933c-1.471375,-3.692688 -4.795319,-7.552002 -7.386566,-8.576111c-5.350677,-2.114929 -10.018158,-19.634888 -12.549042,-47.104309l-1.436432,-15.590332l-9.477814,-2.481018c-23.542969,-6.162872 -34.032593,-5.585022 -58.354965,3.215027c-23.335724,8.442993 -40.201538,19.446838 -51.833359,33.817627c-6.234299,7.702332 -6.880615,10.779053 -2.264191,10.779053c6.135162,0 5.55809,6.560913 -1.577896,17.939392c-3.949173,6.296997 -8.480896,14.877747 -10.070526,19.068359c-1.589661,4.190613 -5.5233,12.861694 -8.74147,19.269165c-3.218185,6.407593 -5.851181,13.313782 -5.851181,15.347351c0,2.03363 -0.827377,4.627991 -1.838547,5.765503c-1.01123,1.137451 -4.808487,7.700317 -8.438507,14.584167c-6.463516,12.257507 -6.582169,12.999573 -5.742142,35.919312c0.670273,18.289856 2.056442,26.7901 6.344406,38.905029c7.372803,20.830688 7.321167,38.804626 -0.097275,33.879578zm-62.734177,-127.676025c-0.716248,-1.94043 -0.71463,-4.138794 0.003448,-4.885315c0.71817,-0.746521 1.305771,-0.245239 1.305771,1.114014c0,1.359253 1.413445,1.907532 3.141045,1.218384c1.727554,-0.689209 3.141029,-2.559937 3.141029,-4.157043c0,-3.985413 3.528389,-5.937866 4.706398,-2.604248c0.526398,1.489746 -1.732178,4.988647 -5.019203,7.775391c-5.224075,4.428833 -6.140213,4.622559 -7.278488,1.538818zm143.868576,-524.532799c-0.090912,-2.294868 0.403931,-3.580589 1.099792,-2.857224c0.695786,0.723358 0.770187,2.600975 0.165314,4.17244c-0.668488,1.736603 -1.164658,1.220787 -1.265106,-1.315216z"/>
  </g>
 </g>
</svg>